<?xml version="1.0" standalone="no"?>
<!DOCTYPE svg PUBLIC "-//W3C//DTD SVG 20010904//EN"
 "http://www.w3.org/TR/2001/REC-SVG-20010904/DTD/svg10.dtd">
<svg version="1.0" xmlns="http://www.w3.org/2000/svg"
 width="1578.000000pt" height="1578.000000pt" viewBox="0 0 1578.000000 1578.000000"
 preserveAspectRatio="xMidYMid meet">
<metadata>
Created by potrace 1.14, written by Peter Selinger 2001-2017
</metadata>
<g transform="translate(0.000000,1578.000000) scale(0.100000,-0.100000)"
fill="#000000" stroke="none">
<path d="M6408 15775 c-1 -2 -48 -6 -103 -9 -55 -4 -111 -8 -125 -10 -14 -2
-51 -7 -84 -11 -32 -4 -68 -8 -80 -10 -19 -3 -38 -6 -136 -21 -19 -3 -78 -14
-130 -24 -52 -11 -111 -22 -130 -25 -19 -3 -71 -15 -115 -26 -44 -12 -87 -22
-95 -24 -108 -22 -568 -164 -635 -195 -11 -6 -45 -19 -76 -29 -89 -30 -358
-147 -498 -215 -276 -137 -266 -131 -441 -232 -226 -131 -450 -278 -659 -436
-79 -60 -149 -115 -156 -121 -7 -7 -30 -25 -51 -42 -39 -30 -95 -78 -124 -105
-9 -8 -55 -49 -101 -90 -177 -157 -463 -454 -613 -635 -32 -38 -66 -80 -77
-92 -164 -195 -433 -596 -569 -848 -204 -378 -320 -646 -448 -1035 -55 -166
-122 -394 -136 -460 -3 -14 -16 -72 -30 -130 -14 -58 -27 -118 -30 -135 -9
-51 -15 -76 -20 -93 -3 -10 -8 -31 -10 -47 -2 -17 -8 -57 -15 -90 -6 -33 -13
-80 -16 -105 -3 -25 -7 -56 -10 -70 -2 -14 -7 -50 -10 -80 -3 -30 -8 -62 -10
-70 -2 -8 -6 -51 -10 -95 -3 -44 -8 -91 -10 -105 -27 -186 -27 -911 0 -1230 2
-25 7 -79 10 -120 3 -41 8 -93 11 -115 2 -22 7 -60 9 -85 3 -25 8 -61 10 -80
3 -19 8 -62 11 -95 3 -33 8 -69 10 -80 2 -10 6 -37 10 -60 3 -22 16 -112 30
-200 13 -88 27 -180 30 -205 6 -49 41 -270 49 -310 3 -14 7 -38 10 -55 11 -65
27 -142 35 -170 4 -16 13 -57 20 -90 11 -49 30 -129 65 -265 20 -80 50 -185
80 -280 20 -63 37 -122 39 -130 37 -152 278 -782 400 -1043 23 -51 56 -121 72
-157 36 -80 269 -544 314 -625 62 -114 86 -157 148 -265 14 -25 55 -94 91
-155 36 -60 70 -118 76 -128 31 -56 230 -363 237 -365 4 -2 8 -8 8 -13 0 -5
15 -31 33 -57 18 -26 69 -99 112 -162 44 -63 83 -119 87 -125 4 -5 69 -93 145
-195 187 -254 334 -439 548 -689 11 -12 29 -33 40 -45 11 -12 49 -56 85 -96
134 -152 183 -203 490 -510 303 -303 355 -354 521 -502 111 -99 116 -103 229
-196 58 -48 107 -89 110 -92 23 -27 317 -250 475 -362 493 -346 842 -527 1215
-628 227 -62 337 -75 610 -75 253 0 396 9 555 35 33 6 74 12 90 15 206 30 250
38 395 72 302 69 678 232 1035 448 195 118 596 402 716 507 15 13 42 35 60 50
70 55 121 99 314 272 165 147 618 607 755 766 12 14 36 41 53 60 18 19 47 53
66 75 19 22 60 69 91 105 32 36 109 128 171 205 62 77 115 142 119 145 6 6
152 189 190 239 14 18 30 38 35 44 11 12 103 131 207 267 24 30 45 57 48 60 8
8 26 32 295 385 55 72 103 135 107 140 4 6 20 26 36 45 16 19 75 96 133 170
117 152 124 161 160 204 14 17 47 60 75 96 27 36 56 72 64 81 8 9 37 45 65 80
27 35 54 69 60 75 5 6 21 26 35 44 14 18 30 38 35 44 6 6 38 45 70 86 33 41
62 77 65 80 3 3 21 25 41 50 20 25 45 55 55 67 11 12 26 30 34 40 47 58 206
250 215 259 5 6 26 30 45 54 19 24 40 48 46 54 5 6 56 67 113 136 56 69 110
134 119 145 55 67 178 224 242 310 41 55 77 102 80 105 19 19 207 300 264 395
211 347 357 681 450 1025 14 52 52 194 85 315 90 335 102 401 117 655 24 393
-8 751 -101 1123 -15 56 -30 116 -35 132 -38 124 -86 270 -107 325 -14 36 -26
70 -27 75 -13 51 -127 305 -211 470 -125 246 -346 605 -459 746 -12 14 -28 36
-36 49 -21 32 -100 134 -155 200 -16 20 -46 56 -65 80 -19 24 -39 48 -45 54
-5 6 -39 45 -75 86 -117 135 -161 182 -425 445 -282 282 -373 368 -565 535
-41 36 -80 70 -86 75 -6 6 -35 30 -64 55 -29 25 -58 50 -64 55 -12 11 -124
106 -165 140 -13 11 -29 25 -35 30 -6 6 -34 28 -61 50 -28 22 -59 47 -70 57
-52 43 -105 85 -135 108 -18 14 -38 30 -44 35 -17 16 -219 172 -336 261 -58
43 -112 84 -120 91 -24 19 -222 165 -261 193 -19 14 -120 86 -225 160 -104 74
-223 158 -264 185 -41 28 -77 52 -80 55 -3 4 -34 25 -70 47 -36 23 -69 46 -75
50 -33 27 -360 225 -535 325 -199 113 -634 329 -695 344 -14 3 -25 10 -25 15
0 5 -6 9 -14 9 -7 0 -38 11 -67 23 -64 28 -92 40 -99 42 -3 0 -43 16 -90 34
-308 120 -683 231 -1060 311 -80 17 -200 44 -269 61 -69 16 -138 32 -154 35
-17 3 -33 6 -36 8 -3 2 -24 7 -46 10 -22 4 -47 9 -55 11 -8 3 -29 7 -45 9 -17
2 -66 9 -110 15 -132 19 -137 20 -218 26 -43 4 -88 9 -100 12 -24 5 -643 13
-649 8z m1027 -1159 c64 -7 71 -8 125 -20 249 -53 431 -118 546 -195 25 -17
47 -31 50 -31 3 0 41 -28 86 -61 150 -115 261 -243 393 -454 53 -84 141 -278
190 -415 37 -104 109 -366 131 -475 11 -55 44 -234 49 -265 3 -19 7 -46 10
-60 2 -14 7 -43 10 -65 3 -22 10 -65 15 -95 14 -82 18 -110 25 -160 3 -25 7
-58 9 -75 8 -54 35 -269 41 -325 4 -30 8 -66 10 -80 2 -14 7 -59 10 -100 3
-41 8 -86 10 -100 2 -14 7 -56 10 -95 7 -83 13 -147 20 -195 3 -19 7 -57 10
-85 3 -27 7 -63 9 -80 2 -16 7 -52 10 -80 29 -246 39 -321 62 -460 21 -133 49
-292 79 -460 65 -349 183 -804 310 -1190 74 -223 122 -362 135 -390 11 -24 76
-207 126 -355 20 -58 40 -114 44 -125 8 -18 81 -247 86 -270 1 -5 28 -100 59
-210 31 -110 65 -240 76 -290 11 -49 22 -99 24 -110 8 -35 36 -174 41 -203 3
-15 11 -63 19 -107 8 -44 17 -93 20 -110 3 -16 12 -70 20 -120 8 -49 17 -99
19 -110 3 -17 8 -56 22 -163 1 -12 5 -50 9 -85 3 -34 8 -73 10 -87 2 -14 7
-68 10 -120 4 -52 8 -116 10 -143 25 -340 21 -840 -10 -1097 -2 -19 -7 -64
-10 -100 -3 -36 -8 -81 -10 -100 -3 -19 -7 -55 -10 -80 -3 -25 -7 -54 -9 -65
-2 -11 -7 -40 -11 -65 -4 -25 -9 -52 -10 -60 -1 -8 -8 -49 -15 -90 -10 -60
-99 -477 -115 -540 -57 -222 -213 -697 -270 -825 -8 -16 -46 -103 -85 -191
-137 -313 -297 -605 -459 -839 -23 -33 -53 -78 -68 -99 -14 -22 -29 -44 -34
-50 -5 -6 -28 -36 -51 -66 -24 -30 -45 -57 -48 -60 -3 -3 -23 -27 -45 -55 -44
-55 -48 -59 -154 -169 -157 -163 -311 -282 -465 -360 -183 -92 -289 -119 -466
-120 -69 0 -137 3 -153 6 -101 24 -213 110 -287 220 -89 133 -167 393 -215
713 -3 22 -15 99 -26 170 -20 133 -25 169 -34 241 -3 23 -8 52 -10 65 -3 13
-7 41 -10 64 -4 22 -17 108 -31 190 -14 83 -27 161 -29 175 -2 14 -7 45 -11
70 -9 57 -10 64 -18 125 -4 28 -9 57 -12 66 -2 10 -7 30 -9 45 -10 63 -18 105
-46 239 -37 172 -30 144 -72 305 -52 201 -135 486 -154 530 -3 8 -7 17 -8 20
-4 18 -29 93 -45 135 -10 28 -42 115 -71 195 -55 153 -184 477 -226 570 -14
30 -41 91 -60 135 -19 44 -53 118 -75 165 -22 47 -47 103 -56 125 -35 87 -451
898 -510 994 -33 54 -315 616 -357 711 -15 36 -38 88 -50 115 -13 28 -48 113
-80 190 -31 77 -60 149 -65 160 -41 93 -203 557 -252 720 -90 301 -197 721
-223 880 -2 11 -10 58 -19 105 -14 78 -24 145 -31 195 -2 11 -8 56 -14 100 -6
45 -14 99 -16 120 -3 22 -7 56 -10 75 -10 78 -19 169 -32 315 -10 112 -10 798
0 920 17 199 22 237 66 500 17 99 33 191 36 205 3 14 8 41 11 60 56 316 203
762 361 1090 358 748 897 1316 1453 1533 78 30 230 77 230 71 0 -3 8 0 19 5
10 6 54 13 97 17 44 4 80 7 82 9 5 4 301 -3 357 -9z"/>
</g>
</svg>
